<?xml version="1.0" encoding="UTF-8" standalone="no"?>
<!-- Created with Inkscape (http://www.inkscape.org/) -->
<svg xmlns:rdf="http://www.w3.org/1999/02/22-rdf-syntax-ns#" xmlns="http://www.w3.org/2000/svg" height="32" width="32" version="1.1" xmlns:cc="http://creativecommons.org/ns#" xmlns:dc="http://purl.org/dc/elements/1.1/">
 <metadata>
  <rdf:RDF>
   <cc:Work rdf:about="">
    <dc:format>image/svg+xml</dc:format>
    <dc:type rdf:resource="http://purl.org/dc/dcmitype/StillImage"/>
    <dc:title/>
   </cc:Work>
  </rdf:RDF>
 </metadata>
 <g transform="matrix(0.23529412,0,0,0.23529412,0,-215.61412)">
  <path fill-rule="nonzero" fill="#FFF" d="m68,916.36c-37.553,0-68,30.454-68,68.016s30.447,67.984,68,67.984,68-30.422,68-67.984-30.447-68.016-68-68.016zm3.974,43.598c0.44205,0.007,0.81196,0.11588,1.0724,0.34702,0.26038,0.23121,0.37241,0.51287,0.37848,0.88332v10.915c1.1415-0.47645,2.3584-0.79219,3.6271-0.97796,1.2686-0.18572,2.583-0.29197,3.9425-0.28392,3.1812,0.0818,5.117,1.0507,5.8033,2.8708,0.68628,1.8202,0.94996,4.0161,0.7885,6.5934v7.6344c0.15944,2.6025-0.11963,4.8487-0.82004,6.688-0.70045,1.8393-2.6517,2.788-5.8349,2.8708-1.4645,0.0242-3.3127-0.11206-5.5826-0.37857-2.2698-0.26651-4.3079-0.82402-6.0872-1.672-0.41279-0.20795-0.73325-0.47169-0.9462-0.78868-0.213-0.3-0.314-0.73-0.315-1.28v-32.462c0.09284-0.40073,0.60482-0.66043,1.5455-0.78868,0.94063-0.12816,1.7544-0.1688,2.4286-0.15773zm26.02,0.12619c0.91035,0.0596,1.4077,0.46215,1.4824,1.2303,0.07468,0.76826,0.09007,1.5408,0.03154,2.3029v25.648c-0.0081,0.85708,0.05197,1.5461,0.18924,2.0821,0.13725,0.53605,0.37746,0.87197,0.75696,0.97796,0.25735,0.11508,0.59319,0.1224,0.97773,0.0315,0.38452-0.0909,1.0126-0.2491,1.9239-0.47321,0.3724-0.0404,0.72288,0.31346,1.0408,1.0726,0.3179,0.75914,0.57099,1.4295,0.72542,2.019,0.12008,0.36544,0.11605,0.69,0,0.94642-0.11608,0.25641-0.35377,0.44469-0.69388,0.56785-0.85183,0.34121-1.7029,0.60495-2.5547,0.78868-0.85183,0.18373-1.6883,0.25035-2.4917,0.25237-1.5593,0.0353-2.8202-0.41921-3.8163-1.4196-0.99615-1.0004-1.5122-2.7451-1.5455-5.2053v-29.844c0.09284-0.40074,0.60482-0.66043,1.5455-0.78868,0.94063-0.12817,1.7544-0.20035,2.4286-0.18928zm-86.514,1.4196c0.44205,0.0131,0.78042,0.13658,1.0408,0.41011,0.26038,0.27361,0.40395,0.60146,0.41002,0.97797v13.376h15.297v-13.66c0.10898-0.40679,0.71254-0.68114,1.7662-0.85177,1.0536-0.17057,1.9274-0.25739,2.6178-0.25238,0.44203,0.0131,0.7804,0.13658,1.0408,0.41011,0.26036,0.27361,0.40393,0.60146,0.41002,0.97797v33.251c-0.0061,0.37654-0.14966,0.70438-0.41002,0.97796-0.26042,0.27358-0.59879,0.39699-1.0408,0.41011-0.69036,0.005-1.5642-0.0502-2.6178-0.22083-1.0537-0.1706-1.6573-0.4765-1.7662-0.88332v-14.953h-15.297v14.669c-0.0061,0.37654-0.14964,0.70438-0.41002,0.97796-0.2604,0.27358-0.59877,0.39699-1.0408,0.41011-0.71154,0.005-1.6048-0.0502-2.6494-0.22083-1.0446-0.1706-1.5972-0.4765-1.7032-0.88332v-33.819c0.10597-0.40679,0.65856-0.68114,1.7032-0.85177,1.0446-0.17057,1.9378-0.25739,2.6494-0.25238zm99.224,9.3064c0.61767-0.0111,1.3794,0.0368,2.2393,0.18928,0.85988,0.15246,1.303,0.46567,1.3878,0.91487v15.805c-0.0303,1.4375,0.0986,2.6046,0.34694,3.5333,0.24827,0.92874,0.81297,1.4189,1.7032,1.4512,1.8863-0.0121,3.4563-0.14107,4.731-0.34701,1.2747-0.20593,1.9951-0.4081,2.1132-0.6625v-19.875c0.0172-0.29677,0.18594-0.5378,0.53617-0.72559,0.3502-0.18773,0.75266-0.27783,1.2301-0.28392,0.64086-0.0121,1.4059,0.0634,2.2709,0.22083,0.86492,0.1575,1.3355,0.44245,1.4193,0.91487v25.837c0.13118,3.723-0.23721,6.4879-1.1354,8.2969-0.89827,1.8091-3.1212,2.7212-6.6234,2.7131-1.8419,0-3.6448-0.177-5.4564-0.5364-1.8116-0.3593-3.6241-0.9322-5.3933-1.7034-0.67823-0.2828-0.9192-0.764-0.72542-1.4828,0.15744-0.5552,0.39842-1.219,0.72542-1.9559s0.68959-1.1281,1.0408-1.1988c0.11908,0,0.20841,0.024,0.3154,0.063,0.10697,0.038,0.22784,0.076,0.34694,0.1262,1.5563,0.5471,3.0849,0.991,4.6048,1.3565,1.5199,0.3654,3.1555,0.5537,4.8571,0.5679,0.88814,0,1.4374-0.473,1.6716-1.4513,0.23413-0.9781,0.34767-2.4364,0.3154-4.3535v-1.9244c-1.0789,0.43408-2.2732,0.74249-3.564,0.94641-1.2909,0.20393-2.5972,0.28595-3.9425,0.28393-3.2286-0.0878-5.2139-1.0398-5.9295-2.9023-0.71556-1.8625-1.0214-4.1047-0.88311-6.688v-16.121c0.0141-0.29676,0.19504-0.53779,0.53617-0.72558,0.34113-0.18774,0.76302-0.27784,1.2616-0.28393zm-66.045,0.0315c0.50059,0.005,0.93787,0.12268,1.2931,0.31547,0.35525,0.19283,0.52002,0.43715,0.53618,0.75713v15.3c-0.03735,1.5869,0.07291,2.9137,0.28386,3.9434,0.21093,1.0297,0.76428,1.541,1.6716,1.5774,1.961-0.0151,3.5683-0.13199,4.8571-0.34702,1.2888-0.21501,1.9711-0.42929,2.0186-0.66249v-19.717c0.08375-0.45122,0.55434-0.74828,1.4193-0.91487,0.86492-0.16654,1.63-0.26143,2.2709-0.25237,0.49855,0.005,0.92044,0.12268,1.2616,0.31547,0.34111,0.19283,0.52203,0.43715,0.53618,0.75713v21.042c-0.07773,1.0186-1.3247,2.0087-3.7217,2.997s-5.489,1.5037-9.2727,1.5774c-3.1227-0.0777-5.0739-0.97697-5.8349-2.7446-0.76099-1.7676-1.0693-3.9109-0.9462-6.4356v-16.341c0.08478-0.45122,0.5594-0.74828,1.4193-0.91487,0.85989-0.16654,1.5901-0.26143,2.2078-0.25237zm35.64,4.7952c-1.9398,0.0263-3.5592,0.18526-4.8571,0.44166-1.2979,0.25643-1.9681,0.45935-2.0186,0.63094v15.363c0.67519,0.11105,1.605,0.23119,2.807,0.37857,1.202,0.14739,2.5626,0.23825,4.0371,0.25237,0.88208-0.0384,1.4168-0.61126,1.6085-1.7035,0.19174-1.0923,0.25911-2.4784,0.22078-4.1642v-6.9404c0.02824-1.2588-0.06991-2.2797-0.28386-3.0601-0.21398-0.78032-0.71863-1.1756-1.5139-1.1988z"/>
 </g>
</svg>
