<?xml version="1.0" encoding="UTF-8" standalone="no"?>
<!-- Created with Inkscape (http://www.inkscape.org/) -->
<svg xmlns:rdf="http://www.w3.org/1999/02/22-rdf-syntax-ns#" xmlns="http://www.w3.org/2000/svg" height="205.03" width="205.03" version="1.1" xmlns:cc="http://creativecommons.org/ns#" xmlns:dc="http://purl.org/dc/elements/1.1/">
 <metadata>
  <rdf:RDF>
   <cc:Work rdf:about="">
    <dc:format>image/svg+xml</dc:format>
    <dc:type rdf:resource="http://purl.org/dc/dcmitype/StillImage"/>
    <dc:title/>
   </cc:Work>
  </rdf:RDF>
 </metadata>
 <g style="letter-spacing:0px;word-spacing:0px;" font-family="Sommet Rounded Bold" font-size="64px" line-height="125%" font-style="normal" font-weight="normal" fill="#ffbc1e">
  <path style="" d="m57.666,74.167c-0.008-0.49728-0.18404-0.92661-0.528-1.288-0.34403-0.36128-0.80803-0.55061-1.392-0.56799-0.91202-0.0066-2.064,0.10271-3.456,0.328-1.392,0.22538-2.16,0.6067-2.304,1.144v18.048h-20.224v-17.664c-0.008-0.49728-0.18401-0.92661-0.52799-1.288-0.34401-0.36128-0.808-0.55061-1.392-0.56799-0.94-0.0066-2.1,0.10271-3.48,0.328-1.38,0.22538-2.14,0.6067-2.28,1.144v44.671c0.13999,0.53732,0.89998,0.91865,2.28,1.144,1.38,0.22533,2.54,0.33466,3.48,0.328,0.58398-0.0173,1.048-0.20667,1.392-0.568,0.34398-0.36132,0.51998-0.79065,0.52799-1.288v-19.392h20.224v19.776c0.14397,0.53732,0.91196,0.91865,2.304,1.144,1.3919,0.22533,2.5439,0.33466,3.456,0.328,0.58395-0.0173,1.0479-0.20667,1.392-0.568,0.34396-0.36132,0.51995-0.79065,0.52799-1.288z"/>
  <path style="" d="m66.888,107.77c-0.16267,3.3346,0.25866,6.1693,1.264,8.5039s3.5706,3.5533,7.6959,3.656c4.9986-0.0973,9.0812-0.79866,12.248-2.104,3.1666-1.3053,4.8012-2.6306,4.9039-3.9759v-27.776c-0.0187-0.42263-0.25336-0.76129-0.70399-1.016-0.45069-0.25463-1.0054-0.38529-1.664-0.39199-0.84668-0.01197-1.8413,0.09203-2.984,0.312-1.1427,0.22003-1.7693,0.62803-1.88,1.224v26.048c-0.06269,0.308-0.94534,0.60399-2.648,0.88798-1.7027,0.28401-3.8493,0.436-6.4399,0.456-1.1987-0.048-1.9373-0.75199-2.216-2.112-0.27868-1.36-0.39334-3.088-0.34399-5.1839v-20.224c-0.02134-0.42263-0.26668-0.76129-0.73599-1.016-0.46934-0.25463-1.0347-0.38529-1.696-0.39199-0.816-0.01197-1.792,0.09203-2.928,0.312-1.136,0.22003-1.76,0.62803-1.872,1.224z"/>
  <path style="" d="m119.61,119.86c4.2052-0.10933,6.7706-1.3786,7.6959-3.808,0.92529-2.4293,1.2826-5.3626,1.072-8.7999v-10.112c0.2133-3.4039-0.13336-6.3079-1.04-8.7119-0.90668-2.4039-3.4613-3.6599-7.6639-3.768-1.796-0.01063-3.532,0.1067-5.2079,0.35199-1.676,0.24536-3.268,0.68269-4.7759,1.312v-14.4c-0.008-0.48928-0.18401-0.88661-0.52799-1.192-0.34401-0.30528-0.808-0.46261-1.392-0.47199-0.89067-0.01462-1.9573,0.06272-3.2,0.232-1.2427,0.16938-1.9253,0.51871-2.048,1.048v42.879c0.001,0.72266,0.14266,1.2933,0.424,1.712,0.28132,0.41866,0.69465,0.76532,1.24,1.04,2.3506,1.12,5.0253,1.856,8.0239,2.208s5.4652,0.512,7.3999,0.48zm-9.9199-7.1679,0-20.288c0.0667-0.22664,0.95731-0.5093,2.672-0.84799,1.7146-0.33864,3.8533-0.5253,6.4159-0.55999,1.0506,0.03069,1.7173,0.56135,2,1.592,0.28264,1.0307,0.4053,2.3773,0.36799,4.0399v9.1519c0.0506,2.2266-0.0507,4.0613-0.30399,5.5039-0.25336,1.4426-0.96268,2.1893-2.128,2.24-1.948-0.0187-3.716-0.12533-5.3039-0.32-1.588-0.19466-2.828-0.36532-3.72-0.51199z"/>
  <path style="" d="m136.89,111.16c0.044,3.2493,0.72398,5.5346,2.04,6.8559s3.004,1.9586,5.0639,1.912c1.0613-0.003,2.1546-0.12534,3.28-0.368,1.1253-0.24266,2.2506-0.58932,3.376-1.04,0.44931-0.16266,0.75064-0.41332,0.90399-0.75199,0.15331-0.33866,0.15064-0.74932-0.008-1.232-0.20402-0.77865-0.51601-1.6693-0.93599-2.672-0.42001-1.0026-0.87601-1.4773-1.368-1.424-1.204,0.29601-2.06,0.504-2.568,0.624-0.50801,0.12-0.932,0.104-1.272-0.048-0.50134-0.14-0.84267-0.56399-1.024-1.272-0.18134-0.70798-0.26668-1.628-0.256-2.76v-33.856c0.0773-1.0066,0.0667-2.0173-0.032-3.032-0.0987-1.0146-0.74933-1.5613-1.952-1.64-0.89066-0.01462-1.9573,0.06271-3.2,0.232-1.2427,0.16938-1.9253,0.51871-2.048,1.048z"/>
  <path style="" d="m172.83,128.5c-2.248-0.0187-4.376-0.26934-6.3839-0.75199-2.008-0.48267-4.04-1.0853-6.0959-1.808-0.15734-0.0667-0.30667-0.12534-0.448-0.176-0.14134-0.0507-0.29067-0.0773-0.44799-0.08-0.464,0.0933-0.912,0.62665-1.344,1.6-0.432,0.97331-0.752,1.8266-0.95999,2.56-0.256,0.94931,0.064,1.6106,0.95999,1.984,2.3373,1.0186,4.7026,1.7653,7.0959,2.24,2.3933,0.47465,4.8066,0.70931,7.2399,0.704,4.6266,0.0106,7.5332-1.1787,8.7199-3.568,1.1866-2.3893,1.6933-6.0426,1.52-10.96v-34.112c-0.1107-0.62396-0.73735-1.04-1.88-1.248-1.1427-0.20796-2.1373-0.30396-2.984-0.288-0.63068,0.008-1.1773,0.13603-1.64,0.384-0.46268,0.24803-0.70534,0.56802-0.72799,0.95999v26.24c-0.15602,0.336-1.076,0.63999-2.76,0.91198-1.684,0.27201-3.772,0.416-6.2639,0.432-1.176-0.0427-1.928-0.67732-2.256-1.904-0.32801-1.2266-0.47201-2.7893-0.432-4.6879v-20.864c-0.11201-0.59329-0.736-0.99062-1.872-1.192-1.136-0.2013-2.112-0.29463-2.928-0.28-0.65867,0.008-1.2133,0.13603-1.664,0.384-0.45067,0.24803-0.68533,0.56802-0.70399,0.95999v21.312c-0.18267,3.412,0.19866,6.3479,1.144,8.8079,0.94532,2.46,3.5506,3.748,7.8159,3.864,1.7773,0.003,3.5186-0.13067,5.2239-0.4s3.2706-0.69066,4.6959-1.264v2.56c0.0427,2.532-0.0907,4.4439-0.39999,5.7359-0.30935,1.292-1.0507,1.94-2.224,1.944z"/>
 </g>
 <path stroke-linejoin="round" d="m-30.342,76.721c0,56.735-45.993,102.73-102.73,102.73-56.735,0-102.73-45.993-102.73-102.73,0-56.735,45.993-102.73,102.73-102.73,56.735,0,102.73,45.993,102.73,102.73z" stroke-dashoffset="0" transform="matrix(0.96872522,0,0,0.96872522,231.42409,28.193825)" stroke="#29bbff" stroke-linecap="round" stroke-miterlimit="4" stroke-width="6.19370699" fill="none"/>
</svg>
